<svg width="56" height="65" viewBox="0 0 56 65" fill="none" xmlns="http://www.w3.org/2000/svg">
<g clip-path="url(#clip0_85_130)">
<path d="M27.997 64.6643L0 48.4953V16.1631L27.997 0L55.9941 16.1631V48.4953L27.997 64.6584V64.6643ZM2.37868 47.1216L27.997 61.911L53.6154 47.1216V17.5368L27.997 2.74737L2.37868 17.5368V47.1216Z" fill="white"/>
<path d="M31.1904 29.6324L38.2908 25.8562V28.217L33.8843 30.56V32.3143L37.821 30.2211V32.5819L33.8843 34.6751V38.7903L31.1904 40.2234V29.6264V29.6324Z" fill="white"/>
<path d="M48.1087 31.232L45.2484 32.7544L43.4644 30.2092L41.6804 34.6573L38.82 36.1797L41.7398 29.1626L39.0281 25.4697L41.8707 23.9592L43.4584 26.2784L45.0462 22.2703L47.8887 20.7599L45.177 27.331L48.0968 31.2439L48.1087 31.232Z" fill="white"/>
<path d="M18.4169 42.5724L12.3691 39.2185V49.5776L5.80396 45.9382V20.1296L12.3691 23.769V33.4621L18.4169 36.816V27.1229L24.982 30.7623V56.5709L18.4169 52.9315V42.5724Z" fill="white"/>
</g>
<defs>
<clipPath id="clip0_85_130">
<rect width="56" height="64.6643" fill="white"/>
</clipPath>
</defs>
</svg>
