<svg width="56" height="65" fill="none" xmlns="http://www.w3.org/2000/svg"><g clip-path="url(#clip0_85_130)" fill="#fff"><path d="M27.997 64.664L0 48.495V16.163L27.997 0l27.997 16.163v32.332L27.997 64.658v.006zM2.379 47.122L27.997 61.91l25.618-14.79V17.538L27.997 2.747 2.379 17.537v29.585z"/><path d="M31.19 29.632l7.1-3.776v2.361l-4.406 2.343v1.754l3.937-2.093v2.36l-3.937 2.094v4.115l-2.694 1.433V29.626v.006zm16.919 1.6l-2.86 1.522-1.785-2.545-1.784 4.448-2.86 1.523 2.92-7.017-2.712-3.693 2.843-1.51 1.587 2.318 1.588-4.008 2.843-1.51-2.712 6.571 2.92 3.913.012-.012zm-29.692 11.34l-6.048-3.354v10.36l-6.565-3.64V20.13l6.565 3.639v9.693l6.048 3.354v-9.693l6.565 3.64V56.57l-6.565-3.64V42.572z"/></g><defs><clipPath id="clip0_85_130"><path fill="#fff" d="M0 0h56v64.664H0z"/></clipPath></defs></svg>